<svg id="Layer_1" data-name="Layer 1" xmlns="http://www.w3.org/2000/svg" xmlns:xlink="http://www.w3.org/1999/xlink" viewBox="0 0 418.34 232.03"><defs><style>.cls-1{fill:url(#linear-gradient);}.cls-2{opacity:0.2;}.cls-3{fill:#37267a;}</style><linearGradient id="linear-gradient" x1="183.96" y1="6.97" x2="247.79" y2="127.02" gradientUnits="userSpaceOnUse"><stop offset="0.13" stop-color="#5173f1"/><stop offset="0.5" stop-color="#953f88"/><stop offset="0.86" stop-color="#ee6b31"/></linearGradient></defs><title>ClassyVision-Logo</title><path class="cls-1" d="M204,56.37c-.29-.62-.6-1.22-.92-1.82a39.35,39.35,0,0,0-73.86,18.88h0a39.37,39.37,0,0,0,39.33,39.31,38.83,38.83,0,0,0,17.25-4l-2.63-5.26a33.13,33.13,0,0,1-14.62,3.35,33.48,33.48,0,0,1-33.45-33.43h0A33.45,33.45,0,0,1,197.87,57.3c.31.54.59,1.09.86,1.66l32.88,65.93h6.57ZM244.46,85.5,260,54.65l0-.07a45.75,45.75,0,0,1,41.25-26.16V22.53A51.71,51.71,0,0,0,254.67,52l-13.5,26.89L235,91.23,223.86,69l-8.74-17.5a51.45,51.45,0,1,0-46.56,73.41,50.58,50.58,0,0,0,22.69-5.27l-2.63-5.25A45.61,45.61,0,0,1,123,73.43,45.59,45.59,0,0,1,209.82,54l8.84,17.7,26.53,53.09,0,.08h6.65v0L258,112.57l24.16-48.12a21.25,21.25,0,0,1,19.08-11.78V46.78a27.08,27.08,0,0,0-24.34,15L254.7,106l-6.18,12.32-3.44-6.9,6.18-12.32v0l19.82-39.59a33.64,33.64,0,0,1,30.15-18.93V34.67A39.51,39.51,0,0,0,265.8,56.89L248,92.49l-6.18,12.33v0l-3.51-7h0ZM217,109.28l-24.09-48a27.23,27.23,0,1,0-12.53,36.66l-2.62-5.24a21,21,0,0,1-9.18,2.08,21.32,21.32,0,1,1,19.07-30.86L211.77,112l6.46,12.87h6.58Z"/><polygon class="cls-2" points="244.46 85.5 238.28 97.82 236.38 94 234.99 91.23 241.18 78.93 242.93 82.42 244.46 85.5"/><polygon class="cls-2" points="251.26 99.08 251.26 99.09 245.08 111.41 241.79 104.82 247.97 92.49 251.26 99.08"/><polygon class="cls-2" points="257.99 112.57 251.81 124.86 249.79 120.85 248.52 118.31 254.7 105.99 256.02 108.63 257.99 112.57"/><path class="cls-3" d="M45.5,189.44a16,16,0,0,0,6.78-1.33,23.22,23.22,0,0,0,5.95-4.23l4.91,5a22.6,22.6,0,0,1-17.41,8,23.37,23.37,0,0,1-17-6.59,24,24,0,0,1,.13-33.47q6.89-6.72,17.38-6.72a22.71,22.71,0,0,1,17.54,7.75l-4.84,5.3a21.07,21.07,0,0,0-6.11-4.33,17,17,0,0,0-6.75-1.23A16,16,0,0,0,34.58,162a14.92,14.92,0,0,0-4.65,11.3,15.63,15.63,0,0,0,4.62,11.51A15,15,0,0,0,45.5,189.44Z"/><path class="cls-3" d="M75.25,196.35H68V148.41h7.24Z"/><path class="cls-3" d="M110.16,196.35h-6.59v-4.59a14.13,14.13,0,0,1-11.44,5.11,13.15,13.15,0,0,1-8.88-3,10.16,10.16,0,0,1-3.52-8.11,8.52,8.52,0,0,1,3.74-7.59q3.75-2.52,10.15-2.52H103v-1.29q0-6.85-7.63-6.85a17.85,17.85,0,0,0-10,3.49l-3.23-4.53a22.3,22.3,0,0,1,14.22-5,15.4,15.4,0,0,1,9.92,3.07q3.84,3.06,3.84,9.66Zm-7.24-12.79v-2.91H94.78q-7.82,0-7.82,4.91a4.36,4.36,0,0,0,1.94,3.84,9.41,9.41,0,0,0,5.4,1.33,9.83,9.83,0,0,0,6-1.94A6.21,6.21,0,0,0,102.92,183.56Z"/><path class="cls-3" d="M141.33,186.08a9.68,9.68,0,0,1-3.56,7.85,13.81,13.81,0,0,1-9.11,2.94,24.49,24.49,0,0,1-7.78-1.36,23.26,23.26,0,0,1-7.14-3.81l3.48-5.62q6,4.51,11.64,4.52a6.08,6.08,0,0,0,3.87-1.13,3.51,3.51,0,0,0,1.42-2.88q0-2.58-6.84-4.65c-.35-.13-.61-.21-.78-.26q-10.73-2.91-10.73-9.69a9.2,9.2,0,0,1,3.72-7.66,15.39,15.39,0,0,1,9.66-2.87A20.06,20.06,0,0,1,140.42,165l-2.71,5.36a16.22,16.22,0,0,0-9.11-2.78,8.22,8.22,0,0,0-4.2.94,3,3,0,0,0-1.62,2.81,2.55,2.55,0,0,0,1.68,2.45,15.77,15.77,0,0,0,3.27,1.1c1.39.35,2.63.69,3.71,1s2.12.73,3.13,1.16a19.91,19.91,0,0,1,3.27,1.81C140.16,180.39,141.33,182.8,141.33,186.08Z"/><path class="cls-3" d="M170.62,186.08a9.7,9.7,0,0,1-3.55,7.85,13.83,13.83,0,0,1-9.11,2.94,24.55,24.55,0,0,1-7.79-1.36A23.49,23.49,0,0,1,143,191.7l3.49-5.62q6,4.51,11.63,4.52a6.09,6.09,0,0,0,3.88-1.13,3.53,3.53,0,0,0,1.42-2.88c0-1.72-2.29-3.27-6.85-4.65-.35-.13-.61-.21-.78-.26q-10.73-2.91-10.72-9.69a9.22,9.22,0,0,1,3.71-7.66,15.39,15.39,0,0,1,9.66-2.87A20.12,20.12,0,0,1,169.72,165L167,170.31a16.22,16.22,0,0,0-9.11-2.78,8.27,8.27,0,0,0-4.2.94,3,3,0,0,0-1.61,2.81,2.56,2.56,0,0,0,1.67,2.45,16,16,0,0,0,3.27,1.1c1.4.35,2.64.69,3.71,1s2.12.73,3.14,1.16a19.85,19.85,0,0,1,3.26,1.81Q170.63,181.16,170.62,186.08Z"/><path class="cls-3" d="M181.45,210.05a12.41,12.41,0,0,1-8.52-3.43l3.29-5.88a6.84,6.84,0,0,0,4.68,2.14,5,5,0,0,0,3.95-1.75,5.68,5.68,0,0,0,1.51-3.81q0-.91-13.89-35.34h7.76L190.5,187.3,200.77,162h7.76l-16.67,40.83a12.43,12.43,0,0,1-4.27,5.3A10.51,10.51,0,0,1,181.45,210.05Z"/><path class="cls-3" d="M242.79,196.35h-8.53L216.1,151.18h8.53l13.9,33.73,13.89-33.73H261Z"/><path class="cls-3" d="M265.12,155.13a4.55,4.55,0,1,1,3.24,1.35A4.45,4.45,0,0,1,265.12,155.13Zm6.79,41.22h-7.24V162h7.24Z"/><path class="cls-3" d="M305.17,186.08a9.68,9.68,0,0,1-3.56,7.85,13.83,13.83,0,0,1-9.11,2.94,24.59,24.59,0,0,1-7.79-1.36,23.49,23.49,0,0,1-7.14-3.81l3.49-5.62q6,4.51,11.63,4.52a6.09,6.09,0,0,0,3.88-1.13,3.51,3.51,0,0,0,1.42-2.88q0-2.58-6.85-4.65c-.34-.13-.6-.21-.77-.26q-10.72-2.91-10.73-9.69a9.2,9.2,0,0,1,3.72-7.66,15.35,15.35,0,0,1,9.66-2.87A20.06,20.06,0,0,1,304.26,165l-2.71,5.36a16.22,16.22,0,0,0-9.11-2.78,8.22,8.22,0,0,0-4.2.94,3,3,0,0,0-1.62,2.81,2.55,2.55,0,0,0,1.68,2.45,15.65,15.65,0,0,0,3.26,1.1c1.4.35,2.64.69,3.72,1s2.12.73,3.13,1.16a19.85,19.85,0,0,1,3.26,1.81Q305.16,181.16,305.17,186.08Z"/><path class="cls-3" d="M312.12,155.13a4.59,4.59,0,0,1,3.23-7.82,4.59,4.59,0,1,1-3.23,7.82Zm6.79,41.22h-7.24V162h7.24Z"/><path class="cls-3" d="M354.73,191.73a18.82,18.82,0,0,1-25.85,0,17.87,17.87,0,0,1,0-25.14,18.85,18.85,0,0,1,25.85,0,17.89,17.89,0,0,1,0,25.14ZM334,187.27a11.26,11.26,0,0,0,15.58,0,12.25,12.25,0,0,0,0-16.22,11.26,11.26,0,0,0-15.58,0,12.28,12.28,0,0,0,0,16.22Z"/><path class="cls-3" d="M371.93,177.74v18.61H364.7V162h7.23v6.26A13.5,13.5,0,0,1,392.77,165q3.59,3.56,3.59,10.27v21.07h-7.24V177.48q0-9.49-7.88-9.5a9.47,9.47,0,0,0-6.53,2.49Q371.94,173,371.93,177.74Z"/></svg>