<svg data-name="Layer 1" xmlns="http://www.w3.org/2000/svg" viewBox="0 0 418.34 232.03"><defs><linearGradient id="a" x1="183.96" y1="6.97" x2="247.79" y2="127.02" gradientUnits="userSpaceOnUse"><stop offset=".13" stop-color="#5173f1"/><stop offset=".5" stop-color="#953f88"/><stop offset=".86" stop-color="#ee6b31"/></linearGradient></defs><path d="M204 56.37c-.29-.62-.6-1.22-.92-1.82a39.35 39.35 0 00-73.86 18.88 39.37 39.37 0 0039.33 39.31 38.83 38.83 0 0017.25-4l-2.63-5.26a33.13 33.13 0 01-14.62 3.35A33.48 33.48 0 01135.1 73.4a33.45 33.45 0 0162.77-16.1c.31.54.59 1.09.86 1.66l32.88 65.93h6.57zm40.46 29.13L260 54.65v-.07a45.75 45.75 0 0141.25-26.16v-5.89A51.71 51.71 0 00254.67 52l-13.5 26.89L235 91.23 223.86 69l-8.74-17.5a51.45 51.45 0 10-46.56 73.41 50.58 50.58 0 0022.69-5.27l-2.63-5.25A45.61 45.61 0 01123 73.43 45.59 45.59 0 01209.82 54l8.84 17.7 26.53 53.09v.08h6.65l6.16-12.3 24.16-48.12a21.25 21.25 0 0119.08-11.78v-5.89a27.08 27.08 0 00-24.34 15L254.7 106l-6.18 12.32-3.44-6.9 6.18-12.32 19.82-39.59a33.64 33.64 0 0130.15-18.93v-5.91a39.51 39.51 0 00-35.43 22.22L248 92.49l-6.18 12.33-3.51-7zM217 109.28l-24.09-48a27.23 27.23 0 10-12.53 36.66l-2.62-5.24a21 21 0 01-9.18 2.08 21.32 21.32 0 1119.07-30.86L211.77 112l6.46 12.87h6.58z" fill="url(#a)"/><path d="M244.46 85.5l-6.18 12.32-1.9-3.82-1.39-2.77 6.19-12.3 1.75 3.49 1.53 3.08zm6.8 13.58v.01l-6.18 12.32-3.29-6.59 6.18-12.33 3.29 6.59zm6.73 13.49l-6.18 12.29-2.02-4.01-1.27-2.54 6.18-12.32 1.32 2.64 1.97 3.94z" opacity=".2"/><path d="M45.5 189.44a16 16 0 006.78-1.33 23.22 23.22 0 005.95-4.23l4.91 5a22.6 22.6 0 01-17.41 8 23.37 23.37 0 01-17-6.59 24 24 0 01.13-33.47q6.89-6.72 17.38-6.72a22.71 22.71 0 0117.54 7.75l-4.84 5.3a21.07 21.07 0 00-6.11-4.33 17 17 0 00-6.75-1.23 16 16 0 00-11.5 4.41 14.92 14.92 0 00-4.65 11.3 15.63 15.63 0 004.62 11.51 15 15 0 0010.95 4.63zm29.75 6.91H68v-47.94h7.24zm34.91 0h-6.59v-4.59a14.13 14.13 0 01-11.44 5.11 13.15 13.15 0 01-8.88-3 10.16 10.16 0 01-3.52-8.11 8.52 8.52 0 013.74-7.59q3.75-2.52 10.15-2.52H103v-1.29q0-6.85-7.63-6.85a17.85 17.85 0 00-10 3.49l-3.23-4.53a22.3 22.3 0 0114.22-5 15.4 15.4 0 019.92 3.07q3.84 3.06 3.84 9.66zm-7.24-12.79v-2.91h-8.14q-7.82 0-7.82 4.91a4.36 4.36 0 001.94 3.84 9.41 9.41 0 005.4 1.33 9.83 9.83 0 006-1.94 6.21 6.21 0 002.62-5.23zm38.41 2.52a9.68 9.68 0 01-3.56 7.85 13.81 13.81 0 01-9.11 2.94 24.49 24.49 0 01-7.78-1.36 23.26 23.26 0 01-7.14-3.81l3.48-5.62q6 4.51 11.64 4.52a6.08 6.08 0 003.87-1.13 3.51 3.51 0 001.42-2.88q0-2.58-6.84-4.65a11.5 11.5 0 00-.78-.26q-10.73-2.91-10.73-9.69a9.2 9.2 0 013.72-7.66 15.39 15.39 0 019.66-2.87 20.06 20.06 0 0111.24 3.54l-2.71 5.36a16.22 16.22 0 00-9.11-2.78 8.22 8.22 0 00-4.2.94 3 3 0 00-1.62 2.81 2.55 2.55 0 001.68 2.45 15.77 15.77 0 003.27 1.1c1.39.35 2.63.69 3.71 1s2.12.73 3.13 1.16a19.91 19.91 0 013.27 1.81c2.32 1.54 3.49 3.95 3.49 7.23zm29.29 0a9.7 9.7 0 01-3.55 7.85 13.83 13.83 0 01-9.11 2.94 24.55 24.55 0 01-7.79-1.36 23.49 23.49 0 01-7.17-3.81l3.49-5.62q6 4.51 11.63 4.52a6.09 6.09 0 003.88-1.13 3.53 3.53 0 001.42-2.88c0-1.72-2.29-3.27-6.85-4.65a11.5 11.5 0 00-.78-.26q-10.73-2.91-10.72-9.69a9.22 9.22 0 013.71-7.66 15.39 15.39 0 019.66-2.87 20.12 20.12 0 0111.28 3.54l-2.72 5.31a16.22 16.22 0 00-9.11-2.78 8.27 8.27 0 00-4.2.94 3 3 0 00-1.61 2.81 2.56 2.56 0 001.67 2.45 16 16 0 003.27 1.1c1.4.35 2.64.69 3.71 1s2.12.73 3.14 1.16a19.85 19.85 0 013.26 1.81q3.5 2.36 3.49 7.28zm10.83 23.97a12.41 12.41 0 01-8.52-3.43l3.29-5.88a6.84 6.84 0 004.68 2.14 5 5 0 003.95-1.75 5.68 5.68 0 001.51-3.81q0-.91-13.89-35.34h7.76l10.27 25.32 10.27-25.3h7.76l-16.67 40.83a12.43 12.43 0 01-4.27 5.3 10.51 10.51 0 01-6.14 1.92zm61.34-13.7h-8.53l-18.16-45.17h8.53l13.9 33.73 13.89-33.73H261zm22.33-41.22a4.55 4.55 0 113.24 1.35 4.45 4.45 0 01-3.24-1.35zm6.79 41.22h-7.24V162h7.24zm33.26-10.27a9.68 9.68 0 01-3.56 7.85 13.83 13.83 0 01-9.11 2.94 24.59 24.59 0 01-7.79-1.36 23.49 23.49 0 01-7.14-3.81l3.49-5.62q6 4.51 11.63 4.52a6.09 6.09 0 003.88-1.13 3.51 3.51 0 001.42-2.88q0-2.58-6.85-4.65c-.34-.13-.6-.21-.77-.26q-10.72-2.91-10.73-9.69a9.2 9.2 0 013.72-7.66 15.35 15.35 0 019.66-2.87 20.06 20.06 0 0111.24 3.54l-2.71 5.36a16.22 16.22 0 00-9.11-2.78 8.22 8.22 0 00-4.2.94 3 3 0 00-1.62 2.81 2.55 2.55 0 001.68 2.45 15.65 15.65 0 003.26 1.1c1.4.35 2.64.69 3.72 1s2.12.73 3.13 1.16a19.85 19.85 0 013.26 1.81q3.49 2.31 3.5 7.23zm6.95-30.95a4.59 4.59 0 013.23-7.82 4.59 4.59 0 11-3.23 7.82zm6.79 41.22h-7.24V162h7.24zm35.82-4.62a18.82 18.82 0 01-25.85 0 17.87 17.87 0 010-25.14 18.85 18.85 0 0125.85 0 17.89 17.89 0 010 25.14zM334 187.27a11.26 11.26 0 0015.58 0 12.25 12.25 0 000-16.22 11.26 11.26 0 00-15.58 0 12.28 12.28 0 000 16.22zm37.93-9.53v18.61h-7.23V162h7.23v6.26a13.5 13.5 0 0120.84-3.26q3.59 3.56 3.59 10.27v21.07h-7.24v-18.86q0-9.49-7.88-9.5a9.47 9.47 0 00-6.53 2.49q-2.77 2.53-2.78 7.27z" fill="#37267a"/></svg>